<?xml version="1.0" encoding="UTF-8"?>
<svg version="1.1" viewBox="0 0 632 453" xmlns="http://www.w3.org/2000/svg">
<title>Slice 1</title>
<g fill="none" fill-rule="evenodd">
<rect width="632" height="453" fill="#000"/>
<g transform="translate(45 43)" fill="#fff" fill-rule="nonzero">
<path transform="translate(279.96 45.806) scale(-1 1) rotate(180) translate(-279.96 -45.806)" d="m338.96 89.5c45.3-4.3 78.9-14.3 97.2-28.7 6.3-5 32.4-29.6 44.8-42.2 8.2-8.4 9.9-9.6 12.8-9.6 5.7 0 8.9 3.2 11.3 11.3 1.4 4.6 3.2 8.3 5 10.2 2.9 3 3.1 3 13.2 3 16-0.1 33.1-5.8 35.9-12.1 0.6-1.3 0.9-2.6 0.7-2.9-0.3-0.2-2.7 0.7-5.4 2-5.4 2.7-18.2 5.5-24.8 5.5-8.5-0.1-14.9-4.9-17.6-13.1-1.9-6-11.4-12.9-17.8-12.9-3.7 0-6 1.6-15.8 10.9-38 36.1-43.5 40.7-56.3 47.4-16.9 8.9-36.4 14.1-59.1 15.7-61.2 4.3-161.7 2.7-189.2-2.9-11.3-2.3-26.4-7.7-36.1-12.8-12.8-6.7-18.3-11.3-56.3-47.4-9.8-9.3-12.1-10.9-15.8-10.9-6.4 0-15.9 6.9-17.8 12.9-2.7 8.2-9.1 13-17.6 13.1-6.6 0-19.4-2.8-24.8-5.5-2.7-1.3-5.1-2.2-5.4-2-0.2 0.3 0.1 1.6 0.7 2.9 2.8 6.2 19.9 12 35.9 12.1 9.8 0 10.3-0.1 13.1-2.8 2-1.9 3.5-4.9 4.7-9.3 1.4-5.2 2.5-7.1 5.8-9.9 2.2-1.9 4.8-3.5 5.7-3.5s10.8 9 22 20.1c24.1 23.8 35.2 33.7 42.9 38.1 23.4 13.6 60.5 22 109.1 24.8 21.6 1.3 79.7 0.4 99-1.5z"/>
<path transform="translate(278.76 114.11) scale(-1 1) rotate(180) translate(-278.76 -114.11)" d="m83.862 123.61c22.2-3.5 49.9-6.6 71.1-7.9 21.9-1.4 237.2-1.4 254.6-0.1 23.1 1.8 48.9 4.9 67.3 8 9.6 1.7 18 3 18.5 3 1.9-0.1-10.4-4.9-22.9-9-21.8-7.1-49.1-12.9-71.3-15-6.5-0.6-52.9-1-118.2-1-113.8 0-117.1 0.2-149.5 5-15.6 2.3-32.5 5.9-44.4 9.5-7.2 2.1-26 9.2-27 10.1-0.9 0.9 4.1 0.3 21.8-2.6z"/>
<path transform="translate(80.236 152.96) scale(-1 1) rotate(180) translate(-80.236 -152.96)" d="m35.162 180.3c9.2-6.6 29.4-17.3 46.2-24.5 23-9.8 41.8-20.9 50.5-29.8 3.9-4.1 4.9-7.2 1.8-6.2-27.7 8.7-48.8 15.1-74.2 22.5-17 4.8-19.5 6-24.1 10.6-5.1 5-7.8 10-9.3 17.2-1.3 6.4-1.5 16.2-0.2 16.2 0.6 0 4.7-2.7 9.3-6z"/>
<path transform="translate(478.99 153.61) scale(-1 1) rotate(180) translate(-478.99 -153.61)" d="m530.86 166.81c-1.6-5-3.4-7.8-7.3-11.7-5.8-5.9-5.7-5.9-35.1-14.5-18.9-5.5-36.8-11-55.5-16.9-3.6-1.1-6.9-2.1-7.5-2.1-2.1 0 7.7 8.6 16.6 14.6 8.8 5.9 29.9 16.7 41.8 21.4 13.8 5.4 36.6 18.1 45.1 25.2l3.5 2.8 0.3-6.1c0.2-4.3-0.4-8.1-1.9-12.7z"/>
</g>
<g transform="translate(75 257)" fill-rule="nonzero">
<path d="m22.6 2.3341c6.1 4 6.9 8.6 6.6 34.7-0.2 21.1-0.3 22.8-2.4 26.7-3.1 5.6-5.7 7.3-11.8 7.3-6.3 0-10.8-2.7-13.2-7.7-1.455-3.201-1.7809-6.6843-1.7992-25.053l-8.343e-4 -1.7474c-3.2086e-15 -26.2 0.9-30.6 6.8-34.4 4.4-2.9 11.4-2.8 15.8 0.2zm-12.9 1.7c-1.3 0.6-3.2 3-4.5 5.7-2 4.5-2.2 6.3-2.2 25.8 0 22.8 0.7 26.9 5.2 30.5 3.9 3 9.8 2.7 13.2-0.8 4.2-4.2 5.4-12.8 4.9-34.7-0.4-19.2-1.2-22.6-6-25.9-2.5-1.8-7-2-10.6-0.6z" fill="#E19130"/>
<path d="m56.1 0.03409c5.9 0 9.7 0.5 12 1.6 5.6 2.7 7.7 6.6 8.2 15.4 0.5 9.1-0.8 13.9-4.8 17.7l-2.9 2.7 2.4 2.8c3.1 3.7 4.2 8 4.9 20.5 0.6 8.9 0.5 10.3-0.9 10.3-0.8 0-1.5-0.1-1.5-0.3-1.5-22.1-3.2-29.1-7.7-30.8-1.3-0.5-5.3-0.9-8.9-0.9h-6.4v16c0 13.6-0.2 16-1.5 16-1.261 0-1.487-4.3281-1.4994-32.789l-5.643e-4 -38.211h8.6zm-5.2 3.9c-0.2 0.2-0.4 7.3-0.4 15.8v15.3h7.6c9.8 0 12.7-1.8 14.4-9.1 2-8.2 0-18.8-3.9-20.5-1.8-0.9-17.1-2.1-17.7-1.5z" fill="#E19130"/>
<path transform="translate(95 35.534) scale(-1 1) rotate(180) translate(-95 -35.534)" d="m96.5 35.534c0-30.9-0.2-35.5-1.5-35.5s-1.5 4.6-1.5 35.5c0 30.9 0.2 35.5 1.5 35.5s1.5-4.6 1.5-35.5z" fill="#E19130"/>
<path transform="translate(129.5 35.534) scale(-1 1) rotate(180) translate(-129.5 -35.534)" d="m142.5 69.034c0-1.9-0.7-2-11.5-2h-11.5v-13.5-13.5h9.1c8.1 0 9-0.2 8.7-1.7s-1.7-1.8-9.1-2.1l-8.7-0.3v-15.9-16h12c11.3 0 12-0.1 12-2 0-1.9-0.7-2-14-2h-14v34.8c0 19.2 0.3 35.2 0.7 35.5 0.3 0.4 6.4 0.7 13.5 0.7 12.1 0 12.8-0.1 12.8-2z" fill="#E19130"/>
<path transform="translate(174.5 35.623) scale(-1 1) rotate(180) translate(-174.5 -35.623)" d="m164.5 65.211c1.5-4.9 5.7-15.2 16.5-41 1.9-4.6 3.5-8.6 3.5-8.7 0-0.2 0.3-0.3 0.8-0.3 0.4 0 0.7 12.5 0.7 27.7 0 25.7 0.1 27.8 1.8 28.1 1.6 0.3 1.7-1.9 1.7-35.2 0-33.2-0.1-35.6-1.7-35.6-1.3 0-2.4 1.9-4 6.8-1.2 3.8-5.1 14-8.8 22.8-3.7 8.7-7.6 18.3-8.8 21.2-1.1 2.8-2.4 5.2-2.8 5.2-0.5 0-0.9-12.6-0.9-28 0-24.2-0.2-28-1.5-28s-1.5 4.6-1.5 35.6c0 32.2 0.2 35.5 1.6 35.2 1-0.2 2.3-2.5 3.4-5.8z" fill="#E19130"/>
<path transform="translate(222 35.534) scale(-1 1) rotate(180) translate(-222 -35.534)" d="m239.5 69.034c0-1.9-0.6-2.1-5.7-1.9-3.2 0.1-6.8 0.1-8 0l-2.3-0.1v-33.5c0-29-0.2-33.5-1.5-33.5s-1.5 4.7-1.7 33.7l-0.3 33.7-4.8-0.3c-6.2-0.3-10.7 0.7-10.7 2.5 0 1.2 3 1.4 17.5 1.4 16.9 0 17.5-0.1 17.5-2z" fill="#E19130"/>
<path transform="translate(261.88 35.617) scale(-1 1) rotate(180) translate(-261.88 -35.617)" d="m265.2 63.7c0.8-3.9 1.8-9 2.3-11.5 9.1-46.7 9.9-52 7.8-52-1 0-1.8 2.1-2.7 6.8-2.3 13.3-9.3 49.7-9.7 51.1-0.2 0.8-0.7 1.1-1 0.9-0.7-0.8-3.8-15.9-7.4-36.8-1.7-9.6-3.4-18.5-3.7-19.7-0.5-2.4-3.3-3.2-3.3-1 0 2.5 11.4 63.8 12.6 68 0.3 1 1.3 1.7 2.2 1.5 1.1-0.2 2-2.4 2.9-7.3z" fill="#E19130"/>
<path transform="translate(307.92 35.534) scale(-1 1) rotate(180) translate(-307.92 -35.534)" d="m296.5 37.534v-33.4l12.7-0.3c11.2-0.3 12.8-0.5 13.1-2 0.3-1.7-0.9-1.8-14.2-1.8h-14.6v35.5c0 30.9 0.2 35.5 1.5 35.5s1.5-4.4 1.5-33.5z" fill="#E19130"/>
<path transform="translate(349.98 35.719) scale(-1 1) rotate(180) translate(-349.98 -35.719)" d="m357 70.203c3.8-1.7 6.5-7.6 6.5-14.3 0-4.2-0.3-5.5-1.5-5.5-0.8 0-1.5 0.9-1.5 2 0 1-0.5 4.2-1.1 7-1.3 6-4 8.3-10 8.3-9.3 0-11.3-6.9-10.7-36.4 0.4-17.2 0.7-20 2.4-23 2.3-4 6.8-5.6 11.5-4.3 4.5 1.3 6.9 5 7.6 11.7 0.5 4.8 0.9 5.7 2.6 5.7 1.8 0 1.9-0.5 1.4-5.4-1.1-10.7-5.6-15.8-14.2-16-6.2-0.1-10.1 2-12.5 6.8-1.8 3.9-2 6.1-2 28.9 0 26.9 0.4 29.5 5.5 33.5 3.2 2.5 11.6 3 16 1z" fill="#fff"/>
<path transform="translate(393.3 35.534) scale(-1 1) rotate(180) translate(-393.3 -35.534)" d="m398.3 54.834c4.9-24.6 8.9-45.8 9.5-50.5 0.4-3.7 0.2-4.3003-1.3-4.3003-2 0-2-0.29966-5 17-2.7 15.5-7.8 41.1-8.3 41.7-0.2 0.2-1.2-3.8-2.2-8.9-0.9-5.1-2.7-14.7-4-21.3s-2.9-15.7-3.6-20.2c-1-6.9-1.6-8.3003-3.1-8.3003-2.3 0-2.3 1.7003 0.3 15.5 1.1 6.1 2.9 15.5 3.9 21 2.5 13.8 6.1 31.7 6.5 33.3 0.3 0.6 1.2 1.2 2.2 1.2 1.5 0 2.3-2.5 5.1-16.2z" fill="#fff"/>
<path d="m447.6 2.3341c4.4 3 6.1 6.6 6.7 14.6 0.5 8.3-1 14.2-4.8 17.7l-2.9 2.8 2.4 2.8c3.2 3.8 4.2 8.1 4.8 20.5 0.5 9.4 0.4 10.3-1.3 10.3-1.9 0-3-5.1-3-14.4 0-7.4-1.6-12.1-5.1-15-2.5395-2.1488-3.9342-2.5804-9.1229-2.5993l-6.7771-6.666e-4 -9.63e-4 18.187c-0.013537 13.181-0.19404 13.813-1.999 13.813-1.86 0-1.9902-0.60543-1.9993-28.682l-6.86e-4 -42.318h9.9c8.6 0 10.2 0.3 13.2 2.3zm-12.1 1.7h-7v31h6.8c8.5 0 12.6-2.2 14.1-7.7 2.5-9 0.3-20-4.5-22.2-1.4-0.6-5.6-1.1-9.4-1.1z" fill="#fff"/>
<path transform="translate(485.52 35.784) scale(-1 1) rotate(180) translate(-485.52 -35.784)" d="m495 68.834c2.9-3.2 4.5-8 4.5-13.5 0-3.1-0.4-3.8-1.9-3.8-1.6 0-2 1-2.6 6.4-0.8 7.9-2.6 9.9-9.1 10-5.7 0.1-8.8-2.9-9.7-9.8-1.1-7.5 0.8-11.4 8.3-16.9 14.1-10.5 16-13.2 16-23.5 0-12.7-4.2-17.7-14.9-17.7-9.7 0-13.7 4.3-14.8 16-0.5 6-0.4 6.5 1.4 6.5 1.7 0 2.1-0.9 2.6-6.4 0.7-7.2 2-9.9 5.4-11.5 5.9-2.7 12.8-0.6 14.8 4.4 1.9 4.5 1.9 13.8 0 17.6-0.9 1.6-5.8 6-10.9 9.8-11.1 8.2-13.4 12.2-12.2 21.2 1.4 10.5 4.9 13.9 14.3 13.9 5.5 0 6.5-0.3 8.8-2.7z" fill="#fff"/>
</g>
<g transform="translate(213 366)" fill="#fff" fill-rule="nonzero">
<path d="m13.051 20.181c2.1 10.6 3.6 19.5 3.4 19.7-0.9 0.9-2.5-1.1-2.5-3.1 0-1.2-0.3-3.2-0.6-4.5-0.6-2-1.2-2.3-5.3-2l-4.6 0.3-0.9 4.7c-0.5 2.7-1.3 4.8-1.8 4.8-1.3 0-1-2.6 1.6-16.1 1.3-6.8 2.7-14.2 3.1-16.4 1.9-12.1 3.4-9.8 7.6 12.6zm-5.4-12.1c-0.6 1.5-3.7 17.5-3.7 19.1 0 0.5 1.8 0.9 4.1 0.9h4l-0.6-5.3c-1-8.1-3.2-16.4-3.8-14.7z"/>
<path transform="translate(37.383 20.024) scale(-1 1) rotate(180) translate(-37.383 -20.024)" d="m30.951 23.168c0-19.1 0.6-21.2 6.4-21.2 5.7 0 6.1 1.3 6 20.7 0 12 0.3 17.2 1 17s1.2-6 1.4-16.3c0.2-13.5 0-16.4-1.5-19.4-1.6-3.2-2.3-3.5-6.4-3.8s-5 0.1-6.8 2.4c-2 2.5-2.1 3.9-2.1 20 0 10.9 0.4 17.4 1 17.4s1-6.3 1-16.8z"/>
<path transform="translate(67.185 20.081) scale(-1 1) rotate(180) translate(-67.185 -20.081)" d="m76.951 39.081c0-0.5-2-1-4.5-1h-4.5v-19c0-12-0.4-19-1-19s-1 7-1 19v19h-3.9c-2.2 0-4.3 0.5-4.6 1-0.4 0.6 3 1 9.4 1 6.1 0 10.1-0.4 10.1-1z"/>
<path d="m97.251 0.28082c3 0.2 4.5 1 6.1 3.1 1.9 2.6 2.1 4.2 2.1 16 0 14.5-1 18-5.7 20.6-2.4 1.4-3 1.4-6.2-0.1-4.4-2.2-5.6-6-5.6-18.8 0.1-16.4 2.3-21.3 9.3-20.8zm-2.9 1.8c-1.4 0.5-2.5 2.4-3.3 5.4-1.4 5.8-1.3 22.1 0.2 26.6 1 3.1 1.7 3.5 4.9 3.8 5.3 0.4 7-2.6 7.6-13.3 1-18-2.1-25.4-9.4-22.5z"/>
<path transform="translate(126.55 20.331) scale(-1 1) rotate(180) translate(-126.55 -20.331)" d="m132.35 38.381c0.9-1.2 1.6-3.8 1.5-5.8l-0.1-3.5-1.4 4.6c-1.6 5-3.8 6.4-7.9 4.9-2.6-1-3.5-2.9-3.5-7.4 0-3.3 2.6-6.5 8.3-10.1 3.7-2.4 5.7-6.5 5.7-11.8 0-6.2-2.5-9.2-7.9-9.2-5.2 0-7.8 2.5-8.7 8.3-0.8 5.3 1.1 5.8 2.1 0.5 0.9-5.2 2.1-6.3 6.4-6.3 4.9 0 6.1 1.4 6.1 7.3 0 4.5-0.4 5.3-3.7 8.1-9 7.6-10.3 9.3-10.3 13.1 0 3.7 1.4 7.4 3.4 8.7 0.6 0.4 2.8 0.8 4.8 0.8 2.7 0 4.1-0.6 5.2-2.2z"/>
<path transform="translate(156.45 20.081) scale(-1 1) rotate(180) translate(-156.45 -20.081)" d="m149.95 31.681v-8.4l6.1-0.4c3.3-0.1 6.3-0.1 6.5 0.1s0.4 4.2 0.4 8.8c0 4.9 0.4 8.3 1 8.3s1-7.3 1-20c0-12.2-0.4-20-1-20-0.5 0-1.1 4.5-1.2 10.3l-0.3 10.2-6.2 0.3-6.3 0.3v-10.6c0-6.3-0.4-10.5-1-10.5s-1 7.3-1 20c0 12.7 0.4 20 1 20s1-3.5 1-8.4z"/>
<path d="m191.85 1.9808c2.7 2.7 3.4 7.2 3 20.9-0.4 13-1.7 16.4-6.4 17.6-3.4 0.9-7.7-1.2-9.3-4.7-3.2-6.6-2.3-27.8 1.3-33.4 2-3 8.6-3.2 11.4-0.4zm-9.3 1.4c-3 3-4.1 10.6-3.3 22 0.8 10.2 2.5 12.9 7.5 12.5 3.2-0.3 3.9-0.7 4.9-3.8 1.7-5.1 1.6-24.2-0.1-28.5-0.8-1.9-1.9-3.5-2.5-3.5-0.5 0-1.6-0.3-2.5-0.6s-2.5 0.4-4 1.9z"/>
<path d="m221.95 2.0808c2.5 2.5 3.4 6.1 2.7 11.3-0.8 5.5-3.5 7.7-9.8 7.7h-4.9v9.5c0 5.7-0.4 9.5-1 9.5-0.584 0-0.97852-6.9159-0.99915-18.996l-8.49e-4 -21.004h6c4.6 0 6.4 0.4 8 2zm-7.1 0h-4.9v8.5 8.5h4.9c6.1 0 7.6-1.6 7.6-8.5 0-6.9-1.5-8.5-7.6-8.5z"/>
</g>
</g>
</svg>
