<?xml version="1.0" standalone="no"?>
<!DOCTYPE svg PUBLIC "-//W3C//DTD SVG 20010904//EN"
 "http://www.w3.org/TR/2001/REC-SVG-20010904/DTD/svg10.dtd">
<svg version="1.0" xmlns="http://www.w3.org/2000/svg"
 width="632.000000pt" height="453.000000pt" viewBox="0 0 632.000000 453.000000"
 preserveAspectRatio="xMidYMid meet">

<g transform="translate(0.000000,453.000000) scale(0.100000,-0.100000)"
fill="#000000" stroke="none">
<path d="M630 2265 l0 -1815 2530 0 2530 0 0 1815 0 1815 -2530 0 -2530 0 0
-1815z m3169 1441 c339 -45 561 -120 702 -237 34 -29 139 -128 234 -219 94
-92 181 -171 193 -174 41 -13 75 14 102 82 14 35 36 75 48 89 23 25 25 26 115
20 109 -7 213 -37 250 -71 31 -29 36 -52 10 -41 -50 21 -135 44 -185 50 -81
10 -135 -17 -172 -86 -46 -83 -114 -129 -170 -115 -12 3 -105 83 -206 177
-102 95 -212 192 -245 217 -116 85 -269 147 -438 176 -149 26 -527 39 -967 33
-543 -8 -671 -21 -852 -88 -162 -60 -228 -106 -467 -330 -192 -181 -209 -193
-254 -185 -45 8 -104 60 -129 112 -39 84 -102 106 -224 79 -41 -9 -92 -23
-111 -31 -19 -9 -37 -14 -39 -11 -9 8 30 49 65 66 47 25 174 51 244 51 70 0
94 -19 127 -100 29 -72 67 -109 100 -94 11 5 100 86 197 180 222 212 277 257
378 306 165 80 378 127 730 162 22 2 220 3 440 1 303 -2 430 -7 524 -19z
m-2089 -816 c418 -60 451 -61 1545 -61 842 0 1024 2 1150 16 159 16 331 39
430 55 33 6 74 13 90 16 89 15 -151 -72 -309 -112 -322 -82 -401 -86 -1456
-82 -945 5 -941 5 -1261 68 -151 30 -461 130 -403 130 4 0 101 -13 214 -30z
m-423 -171 c68 -45 180 -102 488 -249 140 -67 295 -180 295 -215 0 -11 -607
165 -727 210 -53 20 -115 89 -132 147 -19 62 -26 158 -13 158 6 0 46 -23 89
-51z m3963 -26 c-1 -90 -51 -182 -120 -218 -14 -7 -140 -48 -280 -90 -140 -42
-297 -90 -349 -106 -51 -16 -96 -28 -98 -25 -19 18 175 147 336 223 254 120
376 184 436 228 33 24 63 44 68 44 4 1 7 -25 7 -56z m-3854 -688 c56 -23 64
-55 64 -270 0 -165 -2 -190 -20 -224 -10 -21 -26 -41 -35 -45 -30 -11 -100 -6
-121 9 -40 28 -45 61 -42 277 3 189 5 208 23 228 37 41 75 48 131 25z m391 -6
c32 -19 45 -48 50 -110 7 -71 0 -99 -33 -138 l-25 -30 20 -28 c28 -38 55 -233
33 -233 -4 0 -13 44 -19 97 -16 131 -28 147 -117 151 l-66 3 0 -127 c0 -70 -2
-125 -4 -123 -5 5 -8 199 -7 423 l1 139 74 -6 c40 -3 82 -11 93 -18z m573 11
c22 -14 -1 -19 -95 -22 l-80 -3 -3 -85 c-4 -130 -5 -130 78 -130 40 0 70 -4
70 -10 0 -5 -13 -10 -29 -10 -15 0 -49 -3 -75 -6 l-47 -7 3 -126 3 -126 98 -3
c135 -4 124 -22 -13 -22 l-110 0 0 274 c0 210 3 276 13 279 22 9 172 7 187 -3z
m778 -7 c3 -10 -13 -13 -57 -13 l-61 0 -1 -227 c0 -126 -4 -246 -8 -268 -6
-25 -9 58 -10 228 l-1 267 -42 0 c-59 0 -94 10 -76 21 21 14 251 6 256 -8z
m250 -235 c52 -279 58 -316 44 -303 -5 6 -29 109 -52 230 -22 121 -43 221 -46
224 -2 2 -6 2 -9 -1 -6 -6 -68 -315 -80 -401 -7 -47 -25 -75 -25 -39 0 31 81
472 97 526 12 42 30 -17 71 -236z m704 241 c25 -13 48 -68 48 -113 0 -56 -18
-51 -30 9 -13 62 -36 85 -86 85 -68 0 -89 -77 -82 -302 5 -161 15 -192 65
-204 58 -15 96 20 108 99 4 23 11 37 20 37 18 0 19 -17 4 -76 -20 -79 -92
-115 -164 -82 -50 23 -55 49 -55 275 0 223 5 247 50 270 31 16 94 17 122 2z
m316 -76 c12 -49 35 -164 52 -258 17 -93 33 -180 35 -192 7 -30 -13 -39 -25
-11 -5 13 -26 111 -46 218 -19 107 -39 201 -43 208 -9 16 -19 -27 -61 -263
-29 -165 -43 -206 -55 -172 -5 12 68 436 92 535 11 47 31 22 51 -65z m417 54
c55 -55 57 -173 5 -240 l-20 -25 22 -38 c18 -31 23 -56 26 -139 3 -92 2 -98
-13 -81 -9 13 -15 40 -15 75 0 121 -36 171 -121 171 l-48 0 -3 -125 c-2 -73
-7 -126 -13 -128 -6 -1 -11 99 -13 281 l-2 282 81 0 c78 0 82 -1 114 -33z
m364 11 c38 -40 53 -126 24 -135 -7 -3 -14 11 -18 34 -10 68 -26 88 -71 91
-52 4 -75 -21 -82 -88 -4 -48 -3 -51 39 -93 24 -23 63 -58 87 -77 54 -44 75
-100 66 -173 -10 -74 -45 -107 -113 -107 -41 0 -56 5 -82 28 -26 23 -31 36
-36 90 -4 41 -2 62 5 62 12 0 18 -16 27 -78 8 -50 34 -72 86 -72 55 0 79 35
79 113 0 66 3 61 -133 182 -57 50 -57 51 -57 108 0 61 18 109 47 126 10 6 39
11 65 11 36 0 52 -5 67 -22z m-3190 -265 c-1 -175 -4 -263 -10 -238 -16 78
-10 515 7 515 2 0 3 -125 3 -277z m616 61 c47 -114 89 -212 95 -218 7 -7 10
55 11 190 1 109 5 210 9 224 4 14 8 -98 9 -252 1 -153 -3 -278 -7 -278 -5 0
-23 39 -42 88 -61 162 -143 352 -151 352 -5 0 -9 -94 -9 -210 0 -133 -4 -210
-10 -210 -6 0 -10 90 -10 249 0 225 4 290 17 278 2 -3 42 -98 88 -213z m1078
-314 c50 0 99 -5 107 -10 10 -7 -23 -10 -102 -10 l-118 0 0 238 c0 130 4 255
8 277 4 23 8 -74 10 -227 l2 -268 93 0z m-753 -340 c0 -5 -13 -10 -30 -10
l-30 0 -1 -147 c-1 -108 -4 -136 -10 -103 -4 25 -8 91 -8 148 -1 102 -1 102
-26 102 -14 0 -25 5 -25 10 0 6 28 10 65 10 37 0 65 -4 65 -10z m211 -9 c23
-18 24 -25 24 -140 0 -117 -1 -121 -27 -147 -24 -25 -29 -26 -57 -15 -38 16
-51 53 -51 150 0 149 43 207 111 152z m237 6 c6 -6 13 -26 16 -42 l6 -30 -14
31 c-8 17 -22 34 -31 38 -39 15 -77 -43 -55 -83 5 -11 28 -33 50 -51 61 -48
74 -134 26 -165 -43 -29 -105 11 -106 68 0 28 17 11 23 -23 6 -30 18 -35 62
-31 25 2 35 18 35 56 0 24 -12 43 -55 85 -44 44 -55 61 -55 87 0 56 67 97 98
60z m476 0 c25 -18 36 -93 29 -192 -5 -65 -10 -83 -30 -103 -23 -23 -51 -23
-80 0 -40 32 -37 252 4 293 18 19 53 19 77 2z m246 -7 c15 -15 20 -33 20 -69
0 -58 -22 -81 -77 -81 -32 0 -33 -1 -34 -42 -1 -24 -5 -56 -9 -73 -5 -18 -8
33 -9 128 l-1 157 45 0 c32 0 51 -6 65 -20z m-1700 6 c0 -2 11 -57 24 -122 36
-181 36 -184 26 -184 -6 0 -10 9 -10 21 0 33 -19 59 -43 59 -31 0 -42 -10 -54
-50 l-11 -35 -1 31 c-1 17 8 78 19 135 30 150 29 149 40 149 6 0 10 -2 10 -4z
m196 -283 c23 -17 39 -16 58 3 13 12 16 40 16 139 0 72 4 126 10 130 6 4 10
-39 10 -122 0 -149 -9 -173 -65 -173 -57 0 -65 23 -63 180 l1 135 8 -139 c6
-117 10 -142 25 -153z m933 195 l1 -38 50 0 50 0 1 68 2 67 7 -77 c4 -43 4
-113 0 -155 l-7 -78 -2 78 c-1 68 -3 77 -20 77 -10 0 -33 3 -50 6 -31 6 -31 6
-32 -37 0 -24 -4 -62 -8 -84 -6 -28 -9 8 -9 115 0 91 4 143 8 125 4 -16 8 -47
9 -67z"/>
<path d="M1307 1989 c-37 -22 -50 -69 -55 -204 -5 -154 8 -260 37 -289 26 -25
83 -26 110 -2 38 34 46 82 44 257 -1 176 -10 216 -52 239 -25 13 -61 12 -84
-1z"/>
<path d="M1636 1974 c-3 -9 -6 -65 -6 -125 l0 -109 64 0 c89 0 117 24 124 102
6 71 -12 126 -45 139 -41 16 -130 11 -137 -7z"/>
<path d="M4660 1865 l0 -125 44 0 c95 0 129 33 128 127 0 96 -28 123 -123 123
l-49 0 0 -125z"/>
<path d="M3084 1126 c-16 -12 -19 -29 -22 -124 -4 -127 4 -152 48 -152 43 0
54 29 55 140 0 76 -4 102 -18 123 -20 30 -34 33 -63 13z"/>
<path d="M3801 1121 c-26 -26 -35 -76 -29 -166 6 -83 18 -105 59 -105 24 0 30
5 38 38 22 78 9 224 -21 244 -19 12 -26 10 -47 -11z"/>
<path d="M4020 1066 l0 -66 40 0 c35 0 42 4 51 27 6 16 7 41 2 63 -8 33 -12
35 -51 38 l-42 3 0 -65z"/>
<path d="M2380 1004 c-14 -71 -8 -84 34 -84 17 0 18 5 12 53 -16 118 -28 126
-46 31z"/>
</g>
</svg>
